<?xml version="1.0" encoding="UTF-8"?>
<svg version="1.1" xmlns="http://www.w3.org/2000/svg" width="651" height="651">
<path d="M0 0 C0.9769281 -0.00067474 1.9538562 -0.00134949 2.96038818 -0.00204468 C18.81068465 0.01529771 34.26514385 0.6887492 49.9375 3.25 C51.00484375 3.42160645 52.0721875 3.59321289 53.171875 3.77001953 C95.10131896 10.71893064 136.00680973 25.37309713 171.9375 48.25 C172.56479004 48.64751465 173.19208008 49.0450293 173.83837891 49.45458984 C202.80385548 67.95348711 230.71011502 91.11781426 251.9375 118.25 C252.84084195 119.34355458 253.74727474 120.43456089 254.65625 121.5234375 C291.20237614 165.61799544 313.86348768 219.96556303 322.9375 276.25 C323.10266113 277.24999023 323.26782227 278.24998047 323.43798828 279.28027344 C336.65181116 363.045252 312.97490265 450.0558078 263.80859375 518.3515625 C260.05386929 523.49403708 256.0625526 528.40113067 251.9375 533.25 C251.12925781 534.24257813 250.32101562 535.23515625 249.48828125 536.2578125 C243.03752621 544.09990686 236.03274826 551.36818559 228.875 558.5625 C227.96532471 559.48135986 227.05564941 560.40021973 226.1184082 561.34692383 C220.03159508 567.40638048 213.6635629 572.91470708 206.9375 578.25 C205.80321806 579.17919871 204.67014317 580.10987589 203.5390625 581.04296875 C159.20894325 616.70486258 105.94555721 639.22054482 49.9375 648.25 C48.93750977 648.41516113 47.93751953 648.58032227 46.90722656 648.75048828 C-27.26901272 660.45169927 -107.81479812 643.51951673 -171.0625 603.25 C-171.68979004 602.85248535 -172.31708008 602.4549707 -172.96337891 602.04541016 C-201.92885548 583.54651289 -229.83511502 560.38218574 -251.0625 533.25 C-251.96584195 532.15644542 -252.87227474 531.06543911 -253.78125 529.9765625 C-308.36065657 464.12403422 -331.78744187 377.13788372 -324.23803711 292.59375 C-323.65482787 287.12170206 -322.91498294 281.68625688 -322.0625 276.25 C-321.81306641 274.64729248 -321.81306641 274.64729248 -321.55859375 273.01220703 C-311.91458683 213.42474576 -285.44820846 155.2463379 -244.328125 110.7265625 C-242.44130336 108.66407126 -240.60809182 106.57211842 -238.78125 104.45703125 C-235.10992651 100.25198249 -231.2613537 96.25654506 -227.3125 92.3125 C-226.6122168 91.61302246 -225.91193359 90.91354492 -225.19042969 90.19287109 C-220.54750291 85.60427871 -215.81680091 81.34054181 -210.6796875 77.30859375 C-207.86292107 75.09301776 -205.15754877 72.77054996 -202.4375 70.4375 C-154.95042206 30.94631822 -94.13541347 7.7011557 -33.0625 1.25 C-32.22146729 1.1557373 -31.38043457 1.06147461 -30.51391602 0.96435547 C-20.36772131 -0.0390453 -10.18581594 0.00633299 0 0 Z " fill="#B2D4DC" transform="translate(325.0625,-0.25)"/>
<path d="M0 0 C2.49016001 0.01066242 4.97958923 0.00008471 7.46972656 -0.01269531 C20.75670212 -0.02597009 33.73594759 0.84486089 46.50878906 4.82324219 C47.34168457 5.08008789 48.17458008 5.33693359 49.03271484 5.6015625 C68.21756382 11.77857092 93.65790805 23.67117289 103.75878906 42.26074219 C98.2209183 47.89023213 92.69968932 53.44123001 86.67675781 58.55761719 C83.77030397 61.13850085 81.10265993 63.94357098 78.42285156 66.75683594 C76.75878906 68.26074219 76.75878906 68.26074219 74.75878906 68.26074219 C74.75878906 68.92074219 74.75878906 69.58074219 74.75878906 70.26074219 C71.56033235 68.87101973 69.6946077 67.28614994 67.38378906 64.69824219 C53.73739019 50.77386111 33.64036246 42.50235617 14.30566406 41.82714844 C11.70680927 41.80391348 9.10767002 41.80314568 6.50878906 41.82324219 C5.83069183 41.82595123 5.1525946 41.82866028 4.45394897 41.83145142 C-6.25658414 41.89624526 -16.09642117 42.74510723 -26.24121094 46.26074219 C-27.32789063 46.63457031 -28.41457031 47.00839844 -29.53417969 47.39355469 C-41.05922566 51.80491576 -50.48110542 58.66177574 -59.24121094 67.26074219 C-59.92957031 67.92460937 -60.61792969 68.58847656 -61.32714844 69.27246094 C-77.34528787 85.89207201 -82.35292347 107.44207453 -82.49121094 129.82324219 C-82.50055664 130.86375732 -82.50990234 131.90427246 -82.51953125 132.97631836 C-82.42764648 155.4191735 -74.62687664 175.81517678 -58.78808594 191.78417969 C-57.52738281 193.01007813 -57.52738281 193.01007813 -56.24121094 194.26074219 C-55.64824219 194.85113281 -55.05527344 195.44152344 -54.44433594 196.04980469 C-37.8533281 211.40880699 -15.81689794 216.86989028 6.19628906 216.69824219 C6.87577606 216.69520081 7.55526306 216.69215942 8.25534058 216.68902588 C18.31864735 216.62243928 27.31733458 216.03732398 36.75878906 212.26074219 C38.49128906 211.64199219 38.49128906 211.64199219 40.25878906 211.01074219 C52.87792614 206.14019805 63.72589162 198.30352879 72.75878906 188.26074219 C76.69093208 189.85013644 79.08899253 192.4241672 82.00878906 195.44824219 C85.80823873 199.33880272 89.69577405 203.02854822 93.83300781 206.55761719 C97.30265731 209.62611046 100.52381354 212.94833374 103.75878906 216.26074219 C100.57156175 221.70558885 96.60568214 225.2751437 91.75878906 229.26074219 C91.03949219 229.88980469 90.32019531 230.51886719 89.57910156 231.16699219 C65.50462004 251.593825 35.30984503 258.56077583 4.50878906 258.69824219 C3.70780792 258.7046875 2.90682678 258.71113281 2.08157349 258.71777344 C-34.44117026 258.89737279 -68.42518425 246.24530406 -94.75683594 220.79589844 C-118.73900922 197.00712977 -131.50831905 163.10279224 -131.67871094 129.51074219 C-131.40771481 109.56076943 -127.40503457 89.01565048 -118.24121094 71.26074219 C-117.43683594 69.64039063 -117.43683594 69.64039063 -116.61621094 67.98730469 C-102.03372222 39.56495399 -76.30558548 17.87922341 -46.24121094 7.26074219 C-39.98697559 5.28808474 -33.64348863 3.67271687 -27.24121094 2.26074219 C-26.46181152 2.07237793 -25.68241211 1.88401367 -24.87939453 1.68994141 C-16.62301074 -0.09843925 -8.40602132 -0.04270351 0 0 Z " fill="#FEFEFE" transform="translate(327.2412109375,121.7392578125)"/>
<path d="M0 0 C3.63264121 2.61656423 5.83443173 4.88601314 8.57421875 8.5390625 C9.06921875 2.1040625 9.06921875 2.1040625 9.57421875 -4.4609375 C12.54421875 -4.4609375 15.51421875 -4.4609375 18.57421875 -4.4609375 C18.57421875 29.5290625 18.57421875 63.5190625 18.57421875 98.5390625 C15.27421875 98.5390625 11.97421875 98.5390625 8.57421875 98.5390625 C8.24421875 85.3390625 7.91421875 72.1390625 7.57421875 58.5390625 C4.10921875 62.0040625 4.10921875 62.0040625 0.57421875 65.5390625 C-8.82684134 70.97405036 -18.54700283 73.40536802 -29.328125 70.8515625 C-40.23462603 67.18037001 -48.27988463 61.48536435 -53.64453125 51.203125 C-58.34845655 41.08968561 -59.08752154 29.97403013 -55.86328125 19.2265625 C-52.04587792 9.08743096 -45.16622456 2.00945767 -35.44921875 -2.578125 C-23.75450026 -7.68045392 -10.91972738 -6.57645417 0 0 Z " fill="#FDFDFE" transform="translate(420.42578125,459.4609375)"/>
<path d="M0 0 C71.28 0 142.56 0 216 0 C216 5.28 216 10.56 216 16 C144.72 16 73.44 16 0 16 C0 10.72 0 5.44 0 0 Z " fill="#FFFFFF" transform="translate(220,418)"/>
<path d="M0 0 C6.69627205 5.33991037 8.54639255 11.18358007 9.640625 19.45703125 C9.77726069 23.37145211 9.75691823 27.28283429 9.73828125 31.19921875 C9.7368663 32.32272736 9.73545135 33.44623596 9.73399353 34.60379028 C9.72841164 38.17989808 9.71586241 41.75594248 9.703125 45.33203125 C9.69810766 47.76171784 9.69354516 50.19140542 9.68945312 52.62109375 C9.67844813 58.56643055 9.66119592 64.51172016 9.640625 70.45703125 C6.340625 70.45703125 3.040625 70.45703125 -0.359375 70.45703125 C-0.854375 66.00203125 -0.854375 66.00203125 -1.359375 61.45703125 C-2.266875 62.36453125 -3.174375 63.27203125 -4.109375 64.20703125 C-11.2170927 70.24215573 -20.24011726 72.19977043 -29.40625 71.83984375 C-37.642744 70.77215008 -44.80366921 67.72500701 -50.359375 61.45703125 C-54.35780421 56.03980458 -53.9832421 49.91851196 -53.359375 43.45703125 C-51.61997247 37.69526037 -47.25799652 33.78569176 -42.359375 30.45703125 C-37.51231184 28.44712963 -33.07273811 28.19111345 -27.8984375 28.26171875 C-27.10786957 28.26454865 -26.31730164 28.26737854 -25.5027771 28.27029419 C-22.99648416 28.2814217 -20.49055855 28.30651199 -17.984375 28.33203125 C-16.27734894 28.34207067 -14.57031723 28.35119484 -12.86328125 28.359375 C-8.6951726 28.38133662 -4.52733592 28.41581454 -0.359375 28.45703125 C-0.48741804 26.69606291 -0.6245976 24.93575733 -0.765625 23.17578125 C-0.84103516 22.19544922 -0.91644531 21.21511719 -0.99414062 20.20507812 C-1.44267092 16.83030737 -2.61634589 14.36207977 -4.359375 11.45703125 C-4.854375 9.97203125 -4.854375 9.97203125 -5.359375 8.45703125 C-7.55870435 7.29189512 -7.55870435 7.29189512 -10.359375 6.45703125 C-11.4525 6.08578125 -12.545625 5.71453125 -13.671875 5.33203125 C-25.97672081 2.41223733 -36.87117195 6.00587348 -47.359375 12.45703125 C-48.679375 9.81703125 -49.999375 7.17703125 -51.359375 4.45703125 C-37.84551146 -6.85690101 -15.02451814 -9.82563686 0 0 Z " fill="#FDFDFE" transform="translate(271.359375,459.54296875)"/>
<path d="M0 0 C6.48497509 0.08729774 12.58159021 2.73464101 18.125 5.9375 C25.93122752 14.41283274 27.86274273 22.81877659 27.66015625 33.98828125 C27.29172218 41.09952136 24.34536169 45.98214636 19.75 51.25 C18.5434375 52.2709375 18.5434375 52.2709375 17.3125 53.3125 C16.673125 53.869375 16.03375 54.42625 15.375 55 C8.17668077 59.5807486 -0.5099777 58.98224652 -8.6875 58.3125 C-16.72716121 56.11554679 -21.40591181 50.09478492 -25.671875 43.27734375 C-29.27096179 36.31449508 -29.00784587 25.07395455 -26.93359375 17.59375 C-25.9375 15.5625 -25.9375 15.5625 -23.6875 12.3125 C-23.15125 11.44625 -22.615 10.58 -22.0625 9.6875 C-15.60043397 3.22543397 -8.89695674 0.75397939 0 0 Z " fill="#B2D4DC" transform="translate(401.6875,462.6875)"/>
<path d="M0 0 C1.85625 0.0309375 1.85625 0.0309375 3.75 0.0625 C3.75 3.3625 3.75 6.6625 3.75 10.0625 C2.904375 10.13726562 2.05875 10.21203125 1.1875 10.2890625 C-6.47195421 11.17686287 -11.81472803 12.42592166 -17.25 18.0625 C-22.91714296 25.22099637 -23.55973292 31.90277433 -23.6640625 40.7109375 C-23.68342865 41.72346588 -23.7027948 42.73599426 -23.7227478 43.77920532 C-23.78230723 46.99855242 -23.82883448 50.21793574 -23.875 53.4375 C-23.91320151 55.62631728 -23.9522545 57.81511988 -23.9921875 60.00390625 C-24.08798942 65.35665093 -24.17210775 70.70946596 -24.25 76.0625 C-27.55 76.0625 -30.85 76.0625 -34.25 76.0625 C-34.25 51.3125 -34.25 26.5625 -34.25 1.0625 C-30.95 1.0625 -27.65 1.0625 -24.25 1.0625 C-23.92 4.6925 -23.59 8.3225 -23.25 12.0625 C-22.26 10.99 -21.27 9.9175 -20.25 8.8125 C-14.63010327 3.18120388 -8.03406245 -0.13390104 0 0 Z " fill="#FEFEFE" transform="translate(346.25,453.9375)"/>
<path d="M0 0 C0.98396507 0.00424484 0.98396507 0.00424484 1.98780823 0.00857544 C4.05587034 0.01965266 6.12347798 0.04473187 8.19140625 0.0703125 C9.6048114 0.08035848 11.01822342 0.08948148 12.43164062 0.09765625 C15.87254019 0.11955066 19.31317877 0.15399199 22.75390625 0.1953125 C22.81844072 2.25739633 22.86428261 4.3200702 22.90234375 6.3828125 C22.92989746 7.53136719 22.95745117 8.67992187 22.98583984 9.86328125 C22.61778289 15.1509037 20.5693297 18.59727074 16.75390625 22.1953125 C8.96921531 27.21613642 1.93606219 28.87785705 -7.24609375 28.1953125 C-12.44414766 26.74667452 -15.84179259 24.42344929 -19.1328125 20.21875 C-21.16481267 16.52550058 -21.30885676 13.23951806 -20.24609375 9.1953125 C-17.95531421 4.95937981 -15.6680044 2.67763702 -11.07421875 1.11938477 C-7.21603211 0.18805591 -3.95959752 -0.03398796 0 0 Z " fill="#B3D4DC" transform="translate(248.24609375,494.8046875)"/>
</svg>
